<svg xmlns="http://www.w3.org/2000/svg" id="Capa_1" x="0" y="0" enable-background="new 0 0 512 347" version="1.0" viewBox="0 0 512 347" xml:space="preserve">
    <style>
        .st0{fill:#fff}
    </style>
    <path d="M502.8 206.2l-14.5-21.1c-.4-5.5-2.1-18.6-11-32.5-16.2-25.4-44.9-35.8-69-40.8h-.1c-2.6-.5-5.1-.9-7.6-1.2-41.6-41.1-77-72.6-94.5-87.8-10.7-9.3-23.9-15.4-37.9-17.4-6.5-.9-11.7-1.7-16.9-2.3-4.1-.5-7.9 2.4-8.4 6.5s2.4 7.9 6.5 8.4c5 .6 10.1 1.3 16.5 2.2 11.2 1.6 21.7 6.4 30.2 13.9 15.8 13.7 46.2 40.7 82.4 75.9h-18.3v-2.3c0-12.1-9.8-21.9-21.9-21.9h-7.6c-8.6 0-15.6 7-15.6 15.6v8.6H186.6V15.4c9.6-.4 19.2-.5 28.8-.2 4.1.1 7.6-3.1 7.8-7.2.1-4.1-3.1-7.6-7.2-7.8C168.9-1.4 123.8 6 79.8 20.7c-8 2.6-14.5 8.3-18.4 15.8C51.8 55 36 97.5 37.6 175c-8.9 7.7-15.5 15.4-20.7 24.1-2.1 3.6-1 8.2 2.6 10.3 1.2.7 2.5 1.1 3.8 1.1 2.6 0 5-1.3 6.4-3.7 4.4-7.4 10.2-14.1 18.1-20.9H62c15 0 26.4-13.4 24.1-28.2l-2.7-17c-2.4-14.9-13.3-26.5-27.6-30 4.6-34.6 13-55.9 19-67.4 2.1-4.1 5.6-7.1 9.8-8.5 9.7-3.2 19.3-6 28.8-8.4-16.7 29.9-17.5 60.8-16.1 78.2.9 11.4 10.5 20.4 21.9 20.4h196.1v11.5c0 8.6 7 15.6 15.6 15.6h7.6c12.1 0 21.9-9.8 21.9-21.9V125l35.7-.1c.8.1 1.7.2 2.5.3-.2 15.1 5 29.2 15.4 41 14.6 16.5 38.9 27.5 62.9 28.6l13.5 19.7c4.3 6.3 6.6 13.6 6.6 21.2v13.9h-30.7c-11.1-21-33.2-35.4-58.6-35.4s-47.5 14.4-58.6 35.4h-191c-11.1-21-33.2-35.4-58.6-35.4S52 228.8 40.9 249.8H16.8c.5-4.3 1.2-8.3 1.9-12.1.8-4.1-1.9-8-5.9-8.8-4.1-.8-8 1.9-8.8 5.9-1.3 6.6-2.3 13.8-3 21.7v.1c-.4 4.2-.7 8.7-.9 13.4-.4 8.5 2.6 16.5 8.4 22.6 5.8 6.1 13.7 9.5 22.1 9.5h6.2c8.9 26.1 33.7 45 62.8 45s53.9-18.9 62.8-45h182.7c8.9 26.1 33.7 45 62.8 45s53.9-18.9 62.8-45h7.3c18.9 0 34.2-15.3 34.2-34.2V236c-.2-10.8-3.4-21-9.4-29.8zM68.5 143.1l2.7 17c.9 5.6-3.4 10.8-9.2 10.8h-9.4c-.2-16.8.4-31.7 1.6-45 7.4 2.5 13 9 14.3 17.2zm43.7-39.6c-1.4-17.9-.3-51.9 22.1-81.8 12.5-2.4 24.9-4.2 37.3-5.3V110h-52.5c-3.6 0-6.6-2.9-6.9-6.5zm233.2 26.7c0 3.8-3.1 6.9-6.9 6.9h-7.6c-.4 0-.6-.3-.6-.6v-35c0-.4.3-.6.6-.6h7.6c3.8 0 6.9 3.1 6.9 6.9v22.4zm79.9 26.1c-7.3-8.3-11.2-17.8-11.6-28.2 44.9 11 56.1 37.9 58.9 51.3-18.5-2-36.4-10.6-47.3-23.1zM30.5 287c-4.3 0-8.3-1.7-11.2-4.8-3-3.1-4.5-7.2-4.3-11.5.1-2 .2-4 .3-5.9h19.8c-1.3 5.1-1.9 10.4-1.9 15.9 0 2.1.1 4.2.3 6.3h-3zm69 45c-28.3 0-51.3-23-51.3-51.3s23-51.3 51.3-51.3c28.3 0 51.3 23 51.3 51.3s-23 51.3-51.3 51.3zm66-45c.2-2.1.3-4.2.3-6.3 0-5.5-.7-10.8-1.9-15.9h179.5c-1.3 5.1-1.9 10.4-1.9 15.9 0 2.1.1 4.2.3 6.3H165.5zm242.2 45c-28.3 0-51.3-23-51.3-51.3s23-51.3 51.3-51.3c28.3 0 51.3 23 51.3 51.3S436 332 407.7 332zm70.1-45h-4.1c.2-2.1.3-4.2.3-6.3 0-5.5-.7-10.8-1.9-15.9h25v3c-.1 10.6-8.7 19.2-19.3 19.2z" class="st0"/>
    <path d="M99.5 252.1c-15.8 0-28.6 12.8-28.6 28.6s12.8 28.6 28.6 28.6 28.6-12.8 28.6-28.6-12.8-28.6-28.6-28.6zm0 42.2c-7.5 0-13.6-6.1-13.6-13.6s6.1-13.6 13.6-13.6 13.6 6.1 13.6 13.6-6.1 13.6-13.6 13.6zM407.7 252.1c-15.8 0-28.6 12.8-28.6 28.6s12.8 28.6 28.6 28.6 28.6-12.8 28.6-28.6-12.8-28.6-28.6-28.6zm0 42.2c-7.5 0-13.6-6.1-13.6-13.6s6.1-13.6 13.6-13.6 13.6 6.1 13.6 13.6-6.1 13.6-13.6 13.6zM209 160.7c4.1 0 7.5-3.4 7.5-7.5s-3.4-7.5-7.5-7.5h-32.1c-4.1 0-7.5 3.4-7.5 7.5s3.4 7.5 7.5 7.5H209z" class="st0"/>
</svg>
