<svg xmlns="http://www.w3.org/2000/svg" enable-background="new 0 0 480 480" version="1.0" viewBox="0 0 480 480">
    <path fill="#FFFFFF" d="M430 90H262.3l65.2-73.4c3.7-4.1 3.3-10.4-.8-14.1-4.1-3.7-10.4-3.3-14.1.8l-73 82.1-52.5-52.5c-3.9-3.9-10.2-3.9-14.1 0-3.9 3.9-3.9 10.2 0 14.1l42.9 43H50c-27.6 0-50 22.4-50 50v250c0 27.6 22.4 50 50 50h180v20H110c-5.5 0-10 4.5-10 10s4.5 10 10 10h260c5.5 0 10-4.5 10-10s-4.5-10-10-10H250v-20h180c27.6 0 50-22.4 50-50V140c0-27.6-22.4-50-50-50zm30 300c0 16.5-13.5 30-30 30H50c-16.5 0-30-13.5-30-30V140c0-16.5 13.5-30 30-30h380c16.5 0 30 13.5 30 30v250zM316.7 173.7c-19.7 0-36.9 11.9-44.4 29.2-10.2-4.1-21.2-6.2-32.3-6.2s-22.1 2.1-32.3 6.2c-7.5-17.3-24.7-29.2-44.4-29.2-26.7 0-48.3 21.7-48.3 48.3 0 23.6 17 43.3 39.4 47.5-.7 4.6-1.1 9.2-1.1 13.8 0 47.8 38.9 86.7 86.7 86.7s86.7-38.9 86.7-86.7c0-4.6-.4-9.3-1.1-13.8C348 265.3 365 245.6 365 222c0-26.7-21.7-48.3-48.3-48.3zm0 76.6c-.8 0-1.7 0-2.7-.1-3.3-.3-6.6 1.1-8.7 3.7-2.1 2.6-2.8 6.1-1.7 9.3 2.1 6.5 3.1 13.3 3.1 20.2 0 36.8-29.9 66.7-66.7 66.7s-66.7-29.9-66.7-66.7c0-6.9 1-13.6 3.1-20.2 1-3.2.4-6.7-1.7-9.3-1.9-2.4-4.8-3.7-7.8-3.7h-.9c-.9.1-1.8.1-2.7.1-15.6 0-28.3-12.7-28.3-28.3s12.7-28.3 28.3-28.3c14.2 0 26.3 10.6 28.1 24.7.4 3.3 2.5 6.2 5.5 7.7s6.6 1.4 9.5-.3c10.2-5.9 21.8-9.1 33.6-9.1s23.4 3.1 33.6 9.1c2.9 1.7 6.5 1.8 9.5.3s5.1-4.4 5.5-7.7c1.8-14.1 13.9-24.7 28.1-24.7 15.6 0 28.3 12.7 28.3 28.3s-12.7 28.3-28.3 28.3z"/>
</svg>
