<svg xmlns="http://www.w3.org/2000/svg" id="Capa_1" x="0" y="0" enable-background="new 0 0 350 290.7" version="1.0" viewBox="0 0 350 290.7" xml:space="preserve">
    <style>
        .st0{fill:#302f3d}
    </style>
    <path d="M69.5 139.1h43.7c.4-15.4 2.3-30 5.4-43.2H82.3c-7 13-11.9 27.7-12.8 43.2zM113.2 151.4H69.5c.9 15.5 5.8 30.2 12.8 43.2h36.4c-3.2-13.2-5.1-27.8-5.5-43.2zM168.5 139.1V95.9h-37.1c-3.4 13.1-5.4 27.7-5.9 43.2h43zM168.5 83.6V40C155 43.8 143 61 135.2 83.6h33.3zM168.5 250.4v-43.6h-33.3c7.9 22.6 19.8 39.9 33.3 43.6zM180.9 40v43.6h33.3C206.3 61 194.4 43.8 180.9 40zM223.9 139.1c-.4-15.4-2.5-30.1-5.9-43.2h-37.1v43.2h43zM168.5 151.4h-43c.4 15.4 2.5 30.1 5.9 43.2h37.1v-43.2zM227.3 83.6h32c-12.8-17.5-30.7-32.2-51.7-39.1 8.1 9.4 14.8 23.7 19.7 39.1zM122.1 206.9h-32c12.8 17.5 30.7 32.2 51.7 39.1-8-9.5-14.8-23.7-19.7-39.1zM122.1 83.6c4.9-15.4 11.7-29.7 19.7-39.1-20.9 6.9-38.9 21.7-51.7 39.1h32zM227.3 206.9c-4.9 15.4-11.7 29.7-19.7 39.1 20.9-6.9 38.9-21.7 51.7-39.1h-32zM180.9 151.4v43.2H218c3.4-13.1 5.4-27.7 5.9-43.2h-43zM230.8 95.9c3.1 13.2 5 27.7 5.4 43.2h43.7c-.9-15.5-5.8-30.2-12.8-43.2h-36.3zM180.9 206.9v43.6c13.5-3.8 25.5-21 33.3-43.6h-33.3zM279.9 151.4h-43.7c-.4 15.4-2.3 30-5.4 43.2h36.4c6.9-13 11.8-27.7 12.7-43.2z" class="st0"/>
    <path d="M80 290l-50.3.7C0 289.7 0 260 0 260V30C0 .6 29.8.1 29.8.1L80 0v20.1H49.9s-28.1 0-28.5 31C21.2 66.4 19.9 240 19.9 240s-1.5 29.6 30.1 30.3l30-.3v20zM270 290l50.3.7C350 289.7 350 260 350 260V30C350 .6 320.2.1 320.2.1L270 0v20.1h30.1s28.1 0 28.5 31c.2 15.2 1.5 188.9 1.5 188.9s1.5 29.6-30.1 30.3l-30-.3v20z" class="st0"/>
</svg>
