<svg xmlns="http://www.w3.org/2000/svg" enable-background="new 0 0 512 406.4" version="1.0" viewBox="0 0 512 406.4">
    <path fill="#FFFFFF" d="M153.6 154.6h19.9c4.4 0 8.4 1.8 11.3 4.7s4.7 6.9 4.7 11.3v35.5c8.3 1.3 16.8 2.4 25.2 3.4 9.3 1.1 18.5 2 27.2 2.7v-9.8c0-6.1 2.5-11.7 6.5-15.7 4.1-4 9.6-6.5 15.7-6.5h71.2c6.1 0 11.7 2.5 15.7 6.5s6.5 9.6 6.5 15.7v9.8c34.3-2.9 75.7-8.2 105.2-17.9 9.8-3.2 34.4-12 34.4-24.7V85.9c0-.9-.9-1.3-1.7-1.3H104c-.8 0-1.7.5-1.7 1.3v34.4h5.4c6.8 0 13 2.8 17.4 7.2 2.8 2.8 4.9 6.2 6.1 10 6.4.3 12.1 3 16.3 7.2 2.7 2.7 4.8 6.1 6.1 9.9zm55.9-85.1V49.2c0-8.9 3.6-17 9.5-22.8 4.4-4.4 10-7.5 16.3-8.8 1.2-4 3.3-7.6 6.2-10.5C245.9 2.8 252 0 258.8 0h81.7c6.7 0 12.9 2.8 17.3 7.2 2.9 2.9 5 6.5 6.2 10.5 6.3 1.3 11.9 4.5 16.2 8.8 5.9 5.8 9.5 13.9 9.5 22.8v20.3h105.6c4.5 0 8.6 1.8 11.7 4.7 3.1 3 5 7.1 5 11.6v83.7c0 11-6.9 19.9-18.4 27.2v139.5c0 4.5-1.8 8.6-4.8 11.6s-7.1 4.8-11.6 4.8H189.4v37.7c0 4.4-1.8 8.4-4.7 11.3-2.9 2.9-6.9 4.7-11.3 4.7H16c-4.4 0-8.4-1.8-11.3-4.7-2.9-2.9-4.7-6.9-4.7-11.3v-92.9c0-4.1 3.4-7.5 7.5-7.5s7.5 3.4 7.5 7.5v92.9c0 .5.5 1 1 1h157.4c.5 0 1-.5 1-1V170.6c0-.5-.5-1-1-1h-19.9c-1.2 3.8-3.3 7.2-6.1 9.9-4.5 4.5-10.6 7.3-17.4 7.3H59.4c-6.8 0-13-2.8-17.5-7.3-2.8-2.8-4.8-6.2-6.1-9.9H16c-.5 0-1 .5-1 1v92.9c0 4.1-3.3 7.5-7.5 7.5S0 267.6 0 263.5v-92.9c0-4.4 1.8-8.4 4.7-11.3 2.9-2.9 6.9-4.7 11.3-4.7h19.9c1.2-3.8 3.3-7.2 6.1-9.9 4.3-4.3 10-6.9 16.4-7.2 1.2-3.8 3.3-7.2 6.1-10 4.5-4.5 10.7-7.2 17.4-7.2h5.4V85.9c0-4.5 1.9-8.6 5-11.6 3-2.9 7.2-4.7 11.7-4.7l105.5-.1zm26.3-36.4c-2.4.9-4.5 2.2-6.2 4-3.1 3.1-5.1 7.5-5.1 12.2v20.3h150.1V49.2c0-4.7-1.9-9.1-5.1-12.2-1.7-1.8-3.9-3.1-6.2-4-1.2 3.3-3.2 6.3-5.6 8.7-4.4 4.5-10.5 7.2-17.3 7.2h-81.7c-6.7 0-12.9-2.8-17.3-7.2-2.4-2.4-4.3-5.4-5.6-8.6zM340.4 15h-81.7c-2.6 0-5 1.1-6.7 2.8-1.7 1.7-2.8 4.1-2.8 6.7 0 2.5 1 4.9 2.8 6.7 1.7 1.7 4.1 2.8 6.7 2.8h81.7c2.6 0 5-1.1 6.7-2.8 1.7-1.7 2.8-4.1 2.8-6.7 0-2.6-1.1-5-2.8-6.7-1.7-1.7-4-2.8-6.7-2.8zm-98.7 212.2c-9.2-.7-18.9-1.7-28.9-2.8-7.7-.9-15.6-1.9-23.5-3.1v116.4H477c.8 0 1.5-.6 1.5-1.4V204.4c-3.6 1.5-7.3 2.9-11.3 4.2-31.1 10.2-74.4 15.8-109.8 18.7v15.6c0 6.1-2.5 11.7-6.5 15.7s-9.6 6.5-15.7 6.5h-18.6c-4.1 0-7.5-3.3-7.5-7.5 0-4.1 3.4-7.5 7.5-7.5h18.6c2 0 3.8-.8 5.1-2.1 1.3-1.3 2.1-3.1 2.1-5.1v-40.5c0-2-.8-3.8-2.1-5.1-1.3-1.3-3.1-2.1-5.1-2.1H264c-2 0-3.8.8-5.1 2.1-1.3 1.3-2.2 3.1-2.2 5.1v40.5c0 2 .8 3.8 2.2 5.1 1.3 1.3 3.1 2.1 5.1 2.1h18.6c4.1 0 7.5 3.3 7.5 7.5s-3.4 7.5-7.5 7.5H264c-6.1 0-11.7-2.5-15.7-6.5s-6.5-9.6-6.5-15.7l-.1-15.7zM40 314.7c-4.1 0-7.5-3.3-7.5-7.5s3.4-7.5 7.5-7.5h109.5c4.1 0 7.5 3.3 7.5 7.5 0 4.1-3.4 7.5-7.5 7.5H40zM63 369c-4.1 0-7.5-3.3-7.5-7.5 0-4.1 3.4-7.5 7.5-7.5h63.5c4.1 0 7.5 3.4 7.5 7.5s-3.4 7.5-7.5 7.5H63zm-23-27.1c-4.1 0-7.5-3.3-7.5-7.5 0-4.1 3.4-7.5 7.5-7.5h109.5c4.1 0 7.5 3.4 7.5 7.5s-3.4 7.5-7.5 7.5H40zm42.7-72c1 4-1.4 8.1-5.5 9.1-2.7.7-5.5 1-8.3 1-10.2 0-19.4-4.4-26-11.6-6.5-7-10.5-16.7-10.5-27.3 0-10.6 4-20.3 10.5-27.3 6.6-7.2 15.8-11.6 26-11.6 2.8 0 5.6.3 8.3 1 4 1 6.5 5 5.5 9.1-1 4-5.1 6.5-9.1 5.4-1.5-.4-3.1-.6-4.7-.6-5.8 0-11.1 2.6-15 6.8-4 4.4-6.5 10.4-6.5 17.2s2.5 12.8 6.5 17.2c3.9 4.2 9.2 6.8 15 6.8 5.1-.1 11.9-3.1 13.8 4.8zm13.1-55.5c-1.5-3.9.5-8.2 4.3-9.6 3.9-1.5 8.2.5 9.6 4.3l16.4 42.7 16.4-42.7c1.5-3.9 5.8-5.8 9.6-4.3 3.9 1.5 5.8 5.8 4.3 9.6L133 275.2c-.7 1.9-2.2 3.5-4.3 4.3-3.9 1.5-8.2-.5-9.6-4.3l-23.3-60.8zm-31.2-62h-5.2c-2.7 0-5.1 1.1-6.8 2.9s-2.9 4.2-2.9 6.8 1.1 5.1 2.9 6.8 4.2 2.9 6.8 2.9H130c2.7 0 5.1-1.1 6.8-2.9 1.8-1.8 2.9-4.2 2.9-6.8s-1.1-5.1-2.9-6.8c-1.8-1.8-4.2-2.9-6.8-2.9h-5.2c-4.1 0-7.5-3.3-7.5-7.5 0-2.7-1.1-5.1-2.8-6.8-1.8-1.8-4.2-2.9-6.8-2.9H81.8c-2.6 0-5.1 1.1-6.8 2.9-1.8 1.8-2.8 4.2-2.8 6.8-.1 4.2-3.4 7.5-7.6 7.5z"/>
</svg>
