<svg xmlns="http://www.w3.org/2000/svg" id="Capa_1" x="0" y="0" enable-background="new 0 0 387.8 512" version="1.0" viewBox="0 0 387.8 512" xml:space="preserve">
    <style>
        .st0{fill:#fff}
    </style>
    <path d="M380.2 0H7.6C3.4 0 0 3.4 0 7.6v391.1c0 4.2 3.4 7.6 7.6 7.6s7.6-3.4 7.6-7.6V148h238.2c4.2 0 7.6-3.4 7.6-7.6s-3.4-7.6-7.6-7.6H15.2V15.2h357.4v117.6h-83.7c-4.2 0-7.6 3.4-7.6 7.6s3.4 7.6 7.6 7.6h83.7v348.8H15.2v-62.6c0-4.2-3.4-7.6-7.6-7.6-4.2 0-7.6 3.4-7.6 7.6v70.2c0 4.2 3.4 7.6 7.6 7.6h372.6c4.2 0 7.6-3.4 7.6-7.6V7.6c0-4.2-3.4-7.6-7.6-7.6z" class="st0"/>
    <path d="M72 86.2c-3 0-5.4.9-5.6 3.6-.3 3.7-1 9.3-8.9 9.3-6 0-9.3-3.2-9.3-10V64.7c0-6.8 3.3-10 9.2-10 8.3 0 8.9 5.9 9.1 8.6.1 2.6 2.4 3.6 5.7 3.6 3.8 0 5.7-1 5.7-5.6 0-10.1-8.6-16.6-20.8-16.6-11 0-20.2 5.4-20.2 20v24.4c0 14.6 9.1 20 20.1 20 12.2 0 20.9-6.7 20.9-17.3-.2-4.5-2-5.6-5.9-5.6zM113.9 44.7c-11.5 0-20.4 5.4-20.4 20v24.4c0 14.6 8.9 20 20.4 20s20.5-5.4 20.5-20V64.7c0-14.6-9-20-20.5-20zm9.2 44.4c0 6.9-3.5 10-9.2 10-5.8 0-9.1-3.1-9.1-10V64.7c0-6.9 3.3-10 9.1-10 5.7 0 9.2 3.1 9.2 10v24.4zM197.8 44.7c-4.1 0-6 .9-8.9 6l-10.7 19.6-10.7-19.6c-2.9-5.2-4.7-6-8.8-6-2.9 0-5.7 1.5-5.7 5.7V105c0 2.4 2.8 3.6 5.7 3.6 2.8 0 5.7-1.2 5.7-3.6V66.7l10 18.9c1 1.7 2.4 2.3 3.8 2.3s2.9-.5 3.8-2.3l10.2-18.2V105c0 2.4 2.8 3.6 5.7 3.6 2.8 0 5.7-1.2 5.7-3.6V50.4c-.1-4.2-2.9-5.7-5.8-5.7zM228.3 44.7c-2.9 0-5.7 1-5.7 3.5V105c0 2.4 2.8 3.6 5.7 3.6 2.8 0 5.7-1.2 5.7-3.6V48.2c0-2.5-2.9-3.5-5.7-3.5zM287.8 86.2c-3 0-5.4.9-5.6 3.6-.3 3.7-1 9.3-8.9 9.3-6 0-9.3-3.2-9.3-10V64.7c0-6.8 3.3-10 9.2-10 8.3 0 8.9 5.9 9.1 8.6.1 2.6 2.4 3.6 5.7 3.6 3.8 0 5.7-1 5.7-5.6 0-10.1-8.6-16.6-20.8-16.6-11 0-20.2 5.4-20.2 20v24.4c0 14.6 9.1 20 20.1 20 12.2 0 20.9-6.7 20.9-17.3-.1-4.5-1.9-5.6-5.9-5.6zM319.8 60.7c0-4.2 3.6-6.7 9.9-6.7 7.3 0 9.3 3.3 12.1 3.3 3.1 0 4.5-4 4.5-6 0-5.8-11.4-7-16.6-7-10 0-21.2 4.5-21.2 17.5 0 20.7 28 16.7 28 29.8 0 5.2-4.5 7.6-9.8 7.6-8.9 0-11.3-6.7-14.9-6.7-2.7 0-5 3.7-5 6.1 0 5.1 8.7 10.8 20.2 10.8 12.1 0 20.8-6.5 20.8-19 0-22.6-28-18.9-28-29.7zM351.3 313.1c-.4-3.6-3.3-6.5-6.9-6.8-31.1-2.7-49.6-10.3-56.4-23.4-10.8-20.6 5.6-57 33.4-105.2 1.9-3.3 1.1-7.5-2-9.8-3-2.3-7.3-2-10 .7-43.4 43.4-83.5 64.4-110 57.6-15.8-4-27.4-17.9-34.3-41.3-1-3.4-4.2-5.7-7.8-5.4-3.5.2-6.5 2.9-7 6.4-1.2 7.7-2.3 15-3.3 21.4-4.1 27.5-7 47.3-15.2 51.5-8.7 4.4-29.9-5.5-45-13.4-3.1-1.6-6.9-.9-9.2 1.7-2.3 2.6-2.5 6.5-.5 9.4 9.8 14 22.4 33.7 19.1 42.9-3.1 8.6-22.4 14.1-49.1 21.6-6.3 1.8-13.4 3.8-20.8 6-3.4 1-5.7 4.2-5.4 7.8.2 3.5 2.9 6.5 6.4 7 23 3.7 36.7 10.5 41.8 20.7 8.9 17.8-5.8 48.7-27.6 90.5-1.7 3.2-.9 7 1.9 9.3 2.7 2.3 6.7 2.4 9.5.2 39.9-30.7 69.9-50 87-44.5 10.9 3.5 19.7 18.3 28.5 47.9 1 3.2 3.9 5.4 7.3 5.4h.5c3.5-.2 6.5-2.9 7-6.4 3.5-21.9 10.9-35.3 22.5-41.2 22.7-11.4 62 5.9 101.1 26.2 3.2 1.6 7 .9 9.3-1.8 2.3-2.7 2.4-6.7.2-9.5-26.8-35.4-37.1-61-31.4-78.4 5.2-15.9 24-27.9 61-38.8 3.5-1.3 5.8-4.7 5.4-8.3zm-80.9 42.1c-5.9 17.9-.5 39.9 16.8 67.9-36.8-17-66.3-24.3-88.4-13.2-10.7 5.4-18.7 14.5-24.1 27.8-8.4-20-17.7-30.4-30.2-34.4-3.5-1.1-7.2-1.7-11.1-1.7-9 0-19.3 3-31.4 9.2-9.1 4.6-19.6 11.1-32.5 20.2 15.4-32.3 22.7-56.6 13.2-75.6C78 346.1 69.6 339 57 333.8c30-8.5 48.2-14.5 53.6-29.5 3.2-8.9 1.2-19.4-7-34.7 16.1 6.2 26.8 6.8 35.3 2.5 14.4-7.3 17.9-26.5 22.6-57.9 8.6 14.1 20.1 23 34.3 26.6 16.7 4.3 36.4.7 58.3-10.6 10.8-5.5 22-12.9 33.6-21.9-16.9 34.7-23.5 61.4-13 81.5 6.6 12.6 19.4 21.4 38.9 26.6-24.4 10.6-38 23-43.2 38.8z" class="st0"/>
    <path d="M259.6 333.2c-31-20.1-36.7-33-23.8-53.2 1.9-3 1.5-6.9-1-9.4s-6.4-3-9.4-1.1c-4.4 2.7-17.6 10.9-22.2 9-4.6-1.9-8.5-17.4-9.7-22.5-.8-3.1-3.4-5.4-6.6-5.7-3.2-.3-6.2 1.3-7.6 4.2-15 30.6-26.8 42.4-57.4 57.4-2.9 1.4-4.6 4.5-4.2 7.6.3 3.2 2.6 5.8 5.7 6.6 6.4 1.6 10.2 3.9 11.5 7.1 3.7 9.1-9 29.2-19.1 45.3l-.1.1c-1.9 3-1.4 6.9 1.1 9.4 1.5 1.5 3.4 2.2 5.4 2.2 1.4 0 2.8-.4 4.1-1.2 16.2-10.2 36.3-22.8 45.3-19.1 3.1 1.3 5.5 5.1 7.1 11.5.8 3.1 3.4 5.4 6.6 5.7 3.2.3 6.2-1.3 7.6-4.2 14.7-29.9 34-35.7 62.6-35.7 3.4 0 6.3-2.2 7.3-5.4.9-3.2-.4-6.7-3.2-8.6zm-72.8 29.9c-2.6-3.3-5.8-5.8-9.5-7.3-3-1.2-6.1-1.8-9.4-1.8-7.5 0-15.7 2.9-24.4 7.2 6.2-12.4 9.4-23.9 5.4-33.8-1.4-3.5-3.7-6.6-6.8-9.1 19.3-11 31-22.3 42.1-41 3.2 7.6 7.3 12.8 13.2 15.2 5.2 2.1 10.8 1.7 17.2-.5-2.9 16.8 6.1 30 19.5 41.4-18.7 3-34.5 11-47.3 29.7z" class="st0"/>
</svg>
