<svg xmlns="http://www.w3.org/2000/svg" enable-background="new 0 0 512 419.1" version="1.0" viewBox="0 0 512 419.1">
    <path fill="#FFFFFF" d="M507.1 95.2L345.2 33.5c-3.9-1.5-8.3.5-9.8 4.4-1.5 3.9.5 8.3 4.4 9.8l143.3 54.6-99.2 37.8-124.8-56.5c-3.8-1.7-8.3 0-10.1 3.8-1.7 3.8 0 8.3 3.8 10.1l111 50.3L256 188.9 28.9 102.3 256 15.7 312 37c3.9 1.5 8.3-.5 9.8-4.4 1.5-3.9-.5-8.3-4.4-9.8L258.7.5c-1.7-.7-3.7-.7-5.4 0L4.9 95.2C2 96.3 0 99.2 0 102.3V137c0 3.2 1.9 6 4.9 7.1l77.6 29.6v26.4c0 4.2 3.4 7.6 7.6 7.6 4.2 0 7.6-3.4 7.6-7.6v-20.6l155.6 59.3c.9.3 1.8.5 2.7.5s1.8-.2 2.7-.5L376 194.1v120.3c-36.8 19.3-78.1 29.7-120 29.7-57.2 0-113.2-19.3-158.3-54.3v-59.3c0-4.2-3.4-7.6-7.6-7.6-4.2 0-7.6 3.4-7.6 7.6v63c0 2.3 1 4.5 2.8 5.9 48.2 38.7 108.9 59.9 170.7 59.9 41.7 0 82.8-9.7 120-27.9v30.8c-12.3 3.3-21.3 14.6-21.3 27.9 0 15.9 13 28.9 28.9 28.9 15.9 0 28.9-13 28.9-28.9 0-13.3-9-24.5-21.3-27.9v-38.8c12.4-7.1 24.3-15.1 35.5-24.1 1.8-1.4 2.9-3.6 2.9-5.9V173.7l77.6-29.6c2.9-1.1 4.9-3.9 4.9-7.1v-34.7c-.1-3.1-2-6-5-7.1zm-109.8 295c0 7.5-6.1 13.7-13.7 13.7-7.5 0-13.7-6.1-13.7-13.7 0-7.5 6.1-13.7 13.7-13.7s13.7 6.1 13.7 13.7zM15.2 113.3l233.2 88.9v18.4L15.2 131.8v-18.5zm248.4 107.4v-18.4L376 159.4v18.4l-112.4 42.9zm150.7 69.1c-7.4 5.8-15.1 11.1-23.1 16V188.3l23.1-8.8v110.3zM391.2 172v-18.4l105.6-40.2v18.4L391.2 172z"/>
</svg>
